<svg xmlns="http://www.w3.org/2000/svg" width="89.241" height="87.058" viewBox="0 0 89.241 87.058"><path fill="#3A3A3A" d="M-69-44.332h.75v.25H-69zM73.119 17.833H16.962a2.96 2.96 0 0 0-2.961 2.961v44.468a2.96 2.96 0 0 0 2.96 2.961h56.156a2.96 2.96 0 0 0 2.961-2.961V20.794a2.96 2.96 0 0 0-2.959-2.961zM45.067 48.362l-24.6-24.607h49.215L45.067 48.362zm-13.545-4.636L19.896 55.35V32.096l11.626 11.63zm4.455 4.455l4.634 4.636-.001.002 4.456 4.455 9.112-9.11 14.134 14.138H21.853l14.124-14.121zm22.657-4.473l11.158-11.155v22.316L58.634 43.708z"/></svg>